<?xml version="1.0" encoding="UTF-8"?>
<svg width="179px" height="60px" viewBox="0 0 179 60" version="1.1" xmlns="http://www.w3.org/2000/svg" xmlns:xlink="http://www.w3.org/1999/xlink">
    <!-- Generator: Sketch 42 (36781) - http://www.bohemiancoding.com/sketch -->
    <title>logo</title>
    <desc>Created with Sketch.</desc>
    <defs></defs>
    <g id="Page-1" stroke="none" stroke-width="1" fill="none" fill-rule="evenodd">
        <g id="Artboard" transform="translate(-36.000000, -19.000000)" fill="#FFFFFF">
            <path d="M67.0635475,34.3822757 C63.9036161,33.5556034 62.2779677,29.474951 63.43256,25.2678833 C64.5871524,21.0608157 68.0847649,18.3204638 71.2446962,19.1471361 C74.4046276,19.9738083 76.0302761,24.0544608 74.8756837,28.2615284 C73.7210914,32.4685961 70.2234788,35.208948 67.0635475,34.3822757 Z M76.0839704,42.0082312 C74.1829609,40.2433762 74.5941391,36.7284342 77.0023624,34.1573885 C79.4105858,31.5863429 82.9039091,30.9327962 84.8049185,32.6976512 C86.7059279,34.4625062 86.2947498,37.9774482 83.8865265,40.5484938 C81.4783031,43.1195395 77.9849798,43.7730862 76.0839704,42.0082312 Z M45.7317949,41.2743769 C43.7084111,42.9130935 40.1983683,42.0908063 37.891895,39.4377471 C35.5854217,36.7846879 35.3559324,33.3055161 37.3793162,31.6667995 C39.4027,30.0280829 42.9127428,30.8503701 45.2192161,33.5034294 C47.5256894,36.1564886 47.7551787,39.6356603 45.7317949,41.2743769 Z M54.8543274,34.419248 C51.6453213,35.1349757 48.2249302,32.2881323 47.21467,28.0606454 C46.2044099,23.8331585 47.9868457,19.8258914 51.1958518,19.1101637 C54.4048579,18.3944361 57.8252491,21.2412794 58.8355092,25.4687663 C59.8457693,29.6962532 58.0633335,33.7035204 54.8543274,34.419248 Z M61,79 C56.00625,79 44,64.1649831 44,54.5 C44,44.8350169 51.6111593,37 61,37 C70.3888407,37 78,44.8350169 78,54.5 C78,64.1649831 65.99375,79 61,79 Z M61,63 C65.9705627,63 70,58.9705627 70,54 C70,49.0294373 65.9705627,45 61,45 C56.0294373,45 52,49.0294373 52,54 C52,58.9705627 56.0294373,63 61,63 Z M206.980378,47.2112483 C212.217071,47.2112483 215,49.7160494 215,54.1522634 C215,59.1618656 211.738288,61.515775 206.232279,61.515775 C204.975472,61.515775 203.59897,61.4855967 202.013,61.4855967 L202.013,67.3703704 C202.013,68.2455418 201.623988,68.7283951 200.816041,68.7283951 C200.038018,68.7283951 199.559235,68.2153635 199.559235,67.3703704 L199.559235,48.7503429 C199.559235,47.9355281 200.008094,47.3923182 200.786117,47.3923182 C202.402011,47.3017833 204.466765,47.2112483 206.980378,47.2112483 Z M206.022811,59.3429355 C210.212166,59.3429355 212.516311,57.8038409 212.516311,54.303155 C212.516311,50.9835391 210.481481,49.3840878 206.47167,49.3840878 C205.155016,49.3840878 203.509198,49.4444444 202.013,49.5349794 L202.013,59.2825789 C203.688742,59.3127572 205.125092,59.3429355 206.022811,59.3429355 Z M196.147903,66.8875171 C196.267599,67.1591221 196.357371,67.4910837 196.357371,67.7626886 C196.357371,68.3662551 195.848663,68.7585734 195.190336,68.7585734 C194.591857,68.7585734 194.232769,68.4266118 194.053225,67.9135802 C193.664214,66.7668038 193.245278,65.6200274 192.856267,64.473251 L180.856757,64.473251 C180.467746,65.6200274 180.04881,66.7668038 179.629875,67.9437586 C179.450331,68.4567901 179.091244,68.7585734 178.582536,68.7585734 C177.864361,68.7585734 177.355654,68.3360768 177.355654,67.7325103 C177.355654,67.4609053 177.445426,67.1289438 177.535197,66.8875171 C179.719647,61.0932785 181.844248,55.2386831 184.058622,49.2935528 C184.597253,47.8449931 185.524896,47 186.871474,47 C188.2779,47 189.175619,47.8449931 189.684327,49.2935528 C191.868776,55.2386831 194.023301,61.2139918 196.147903,66.8875171 Z M181.63478,62.3305898 L192.078244,62.3305898 L187.858965,50.3497942 C187.649497,49.7160494 187.29041,49.3840878 186.871474,49.3840878 C186.482463,49.3840878 186.123375,49.7160494 185.883983,50.3497942 C184.477557,54.3333333 183.071131,58.3168724 181.63478,62.3305898 Z M154.643365,68.7585734 C153.895266,68.7585734 153.506255,68.2455418 153.506255,67.4005487 L153.536179,48.9012346 C153.536179,47.8148148 154.194506,47.2414266 155.032377,47.2414266 C155.900172,47.2414266 156.349031,47.5733882 156.977434,48.569273 C159.072112,52.2812071 161.077017,55.9026063 163.560706,60.2482853 C163.650478,60.399177 163.74025,60.5198903 163.859946,60.5198903 C163.979642,60.5198903 164.069414,60.399177 164.18911,60.218107 C166.583027,55.9026063 168.64778,52.3113855 170.712534,48.7201646 C171.340937,47.6035665 171.909492,47.2414266 172.627667,47.2414266 C173.675006,47.2414266 174.123866,47.9355281 174.123866,48.9917695 L174.123866,67.4609053 C174.123866,68.2757202 173.734854,68.7585734 173.106451,68.7585734 C172.238656,68.7585734 171.849644,68.2757202 171.849644,67.4609053 L171.849644,51.7379973 C171.849644,51.5871056 171.789796,51.4663923 171.670101,51.4663923 C171.550405,51.4663923 171.490557,51.526749 171.400785,51.7078189 C169.395879,55.2688615 167.600442,58.4979424 165.266372,62.6927298 C164.877361,63.3566529 164.368653,63.6886145 163.859946,63.6886145 C163.321315,63.6886145 162.812607,63.3868313 162.423596,62.6927298 C160.029679,58.4375857 158.174393,55.0274348 156.259259,51.7078189 C156.169487,51.5569273 156.109639,51.4663923 155.989944,51.4663923 C155.900172,51.4663923 155.840324,51.5569273 155.840324,51.6776406 L155.840324,67.4005487 C155.840324,68.2455418 155.391464,68.7585734 154.643365,68.7585734 Z M148.060093,47.5733882 C149.286976,47.5733882 150.064999,48.2674897 150.064999,49.7160494 C150.064999,51.1042524 149.46652,51.8587106 148.060093,51.8587106 L143.96051,51.8587106 L143.96051,65.9821674 C143.96051,67.9135802 143.242335,68.7283951 141.536669,68.7283951 C140.160167,68.7283951 139.172676,67.6721536 139.172676,65.9821674 L139.172676,51.8587106 L134.983321,51.8587106 C133.84621,51.8587106 133.038263,51.1042524 133.038263,49.7160494 C133.038263,48.2674897 133.606819,47.5733882 134.983321,47.5733882 L148.060093,47.5733882 Z M133.487123,65.1673525 C133.696591,65.7105624 133.906058,66.2839506 133.906058,66.9176955 C133.906058,68.0342936 132.978415,68.7887517 131.631837,68.7887517 C130.464803,68.7887517 129.716703,68.1550069 129.447388,67.1289438 L128.729213,64.9561043 L118.794457,64.9561043 L118.076282,67.2194787 C117.747118,68.1851852 117.058867,68.7887517 116.041452,68.7887517 C114.66495,68.7887517 113.647535,67.9739369 113.647535,66.8271605 C113.647535,66.1934156 113.886927,65.6502058 114.036546,65.1673525 C115.772136,60.5198903 117.597498,55.7215364 119.452784,50.6817558 C120.260731,48.4183813 121.577385,47.18107 123.851607,47.18107 C126.185676,47.18107 127.35271,48.4183813 128.190581,50.6817558 C130.015943,55.691358 131.781457,60.5802469 133.487123,65.1673525 Z M120.111111,60.9122085 L127.442482,60.9122085 C126.574687,58.1659808 125.706892,55.5102881 124.839097,52.8545953 C124.659554,52.2510288 124.270542,51.9190672 123.851607,51.9190672 C123.462595,51.9190672 122.983812,52.2510288 122.804268,52.8545953 C121.906549,55.5102881 121.00883,58.1659808 120.111111,60.9122085 Z M103.533235,47.3621399 C107.902134,47.3621399 110.954378,49.5651578 112.241109,52.3717421 C112.450576,52.7942387 112.570272,53.2770919 112.570272,53.6995885 C112.570272,55.0576132 111.433162,55.962963 110.296051,55.962963 C109.488104,55.962963 108.769929,55.4801097 108.291145,54.6954733 C107.333579,53.005487 106.106696,51.6474623 103.413539,51.6474623 C100.361295,51.6474623 97.90753,53.9108368 97.90753,58.1659808 C97.90753,62.3909465 100.391219,64.7146776 103.652931,64.7146776 C105.328673,64.7146776 106.735099,64.0507545 107.752514,63.1454047 C108.350993,62.6625514 108.829777,62.4211248 109.577876,62.4211248 C110.625215,62.4211248 111.552857,63.3566529 111.552857,64.4430727 C111.552857,65.6502058 110.565367,66.6159122 109.547952,67.2798354 C108.201374,68.1851852 106.13662,69 103.623007,69 C97.5484425,69 93,64.8052126 93,58.1961591 C93,51.4663923 97.6382144,47.3621399 103.533235,47.3621399 Z" id="logo"></path>
        </g>
    </g>
</svg>