<?xml version="1.0" encoding="UTF-8"?><svg xmlns="http://www.w3.org/2000/svg" xmlns:xlink="http://www.w3.org/1999/xlink"><symbol viewBox="0 0 50 60" id="home-pin"><title>home-pin</title><g fill="none" fill-rule="evenodd"><path d="M25 60c7.344 0 25-21.193 25-35C50 11.193 38.807 0 25 0S0 11.193 0 25s17.656 35 25 35z" fill="#373D40"/><path d="M22 33.484V42h-7V26.616l10-11.11 10 11.11V42h-7v-8.516h-6zm16.269-6.802L25 12.466 11.731 26.682l-1.462-1.364L25 9.534l14.731 15.784-1.462 1.364z" fill="#FFF" fill-rule="nonzero"/></g></symbol><symbol viewBox="0 0 179 60" id="logo"><title>logo</title><path d="M31.064 15.382c-3.16-.826-4.786-4.907-3.631-9.114C28.587 2.06 32.085-.68 35.245.148c3.16.826 4.785 4.906 3.63 9.114-1.154 4.207-4.652 6.947-7.811 6.12zm9.02 7.626c-1.901-1.765-1.49-5.28.918-7.85 2.409-2.572 5.902-3.225 7.803-1.46 1.9 1.765 1.49 5.28-.918 7.85-2.409 2.572-5.902 3.225-7.803 1.46zm-30.352-.734c-2.024 1.64-5.534.817-7.84-1.836-2.307-2.653-2.536-6.132-.513-7.771 2.024-1.639 5.534-.817 7.84 1.836 2.307 2.653 2.536 6.133.513 7.771zm9.122-6.855c-3.209.716-6.63-2.13-7.64-6.358-1.01-4.228.773-8.235 3.982-8.95 3.209-.717 6.63 2.13 7.64 6.358 1.01 4.227-.773 8.235-3.982 8.95zM25 60C20.006 60 8 45.165 8 35.5S15.611 18 25 18s17 7.835 17 17.5S29.994 60 25 60zm0-16a9 9 0 1 0 0-18 9 9 0 0 0 0 18zm145.98-15.789c5.237 0 8.02 2.505 8.02 6.941 0 5.01-3.262 7.364-8.768 7.364-1.257 0-2.633-.03-4.219-.03v5.884c0 .876-.389 1.358-1.197 1.358-.778 0-1.257-.513-1.257-1.358V29.75c0-.814.45-1.358 1.227-1.358 1.616-.09 3.68-.18 6.194-.18zm-.957 12.132c4.19 0 6.493-1.54 6.493-5.04 0-3.32-2.035-4.919-6.044-4.919-1.317 0-2.963.06-4.459.151v9.748c1.676.03 3.112.06 4.01.06zm-9.875 7.545c.12.271.21.603.21.875 0 .603-.51.996-1.168.996-.598 0-.957-.332-1.137-.845-.389-1.147-.808-2.294-1.197-3.44h-12c-.388 1.146-.807 2.293-1.226 3.47-.18.513-.539.815-1.047.815-.719 0-1.227-.423-1.227-1.026 0-.272.09-.604.18-.845 2.184-5.795 4.308-11.65 6.523-17.594.538-1.449 1.466-2.294 2.812-2.294 1.407 0 2.305.845 2.813 2.294 2.185 5.945 4.34 11.92 6.464 17.594zm-14.513-4.557h10.443L151.86 31.35c-.21-.634-.569-.966-.988-.966-.389 0-.748.332-.987.966-1.406 3.983-2.813 7.967-4.25 11.98zm-26.992 6.428c-.748 0-1.137-.513-1.137-1.358l.03-18.5c0-1.086.659-1.66 1.496-1.66.868 0 1.317.332 1.945 1.328 2.095 3.712 4.1 7.334 6.584 11.68.09.15.18.27.299.27.12 0 .21-.12.33-.3 2.393-4.316 4.458-7.908 6.523-11.499.628-1.116 1.196-1.479 1.915-1.479 1.047 0 1.496.695 1.496 1.75v18.47c0 .815-.39 1.298-1.018 1.298-.867 0-1.256-.483-1.256-1.298V32.738c0-.15-.06-.272-.18-.272s-.18.06-.27.242c-2.004 3.56-3.8 6.79-6.134 10.985-.389.664-.897.996-1.406.996-.539 0-1.047-.302-1.436-.996-2.394-4.255-4.25-7.666-6.165-10.985-.09-.151-.15-.242-.27-.242-.089 0-.149.09-.149.212V48.4c0 .845-.449 1.358-1.197 1.358zm-6.583-21.186c1.227 0 2.005.694 2.005 2.143 0 1.388-.598 2.143-2.005 2.143h-4.1v14.123c0 1.932-.718 2.746-2.423 2.746-1.377 0-2.364-1.056-2.364-2.746V32.86h-4.19c-1.137 0-1.945-.755-1.945-2.143 0-1.449.569-2.143 1.945-2.143h13.077zM97.487 46.167c.21.544.42 1.117.42 1.75 0 1.117-.929 1.872-2.275 1.872-1.167 0-1.915-.634-2.185-1.66l-.718-2.173h-9.935l-.718 2.263c-.329.966-1.017 1.57-2.035 1.57-1.376 0-2.393-.815-2.393-1.962 0-.634.239-1.177.389-1.66 1.735-4.647 3.56-9.445 5.416-14.485.808-2.264 2.124-3.5 4.399-3.5 2.334 0 3.5 1.236 4.339 3.5 1.825 5.01 3.59 9.898 5.296 14.485zm-13.376-4.255h7.331c-.867-2.746-1.735-5.402-2.603-8.057-.18-.604-.568-.936-.987-.936-.39 0-.868.332-1.048.936-.897 2.655-1.795 5.311-2.693 8.057zm-16.578-13.55c4.37 0 7.421 2.203 8.708 5.01.21.422.33.905.33 1.328 0 1.358-1.138 2.263-2.275 2.263-.808 0-1.526-.483-2.005-1.268-.957-1.69-2.184-3.048-4.877-3.048-3.053 0-5.506 2.264-5.506 6.519 0 4.225 2.483 6.549 5.745 6.549a6.131 6.131 0 0 0 4.1-1.57c.598-.482 1.077-.724 1.825-.724 1.047 0 1.975.936 1.975 2.022 0 1.207-.988 2.173-2.005 2.837-1.347.905-3.411 1.72-5.925 1.72C61.548 50 57 45.805 57 39.196c0-6.73 4.638-10.834 10.533-10.834z" fill="#FFF" fill-rule="evenodd"/></symbol></svg>